<svg aria-hidden="true" style="position: absolute; width: 0; height: 0; overflow: hidden;"
  version="1.1" xmlns="http://www.w3.org/2000/svg" xmlns:xlink="http://www.w3.org/1999/xlink">
  <defs>
    <symbol id="icon-loader" viewBox="0 0 24 24">
      <path
        d="M11 2v4c0 0.552 0.448 1 1 1s1-0.448 1-1v-4c0-0.552-0.448-1-1-1s-1 0.448-1 1zM11 18v4c0 0.552 0.448 1 1 1s1-0.448 1-1v-4c0-0.552-0.448-1-1-1s-1 0.448-1 1zM4.223 5.637l2.83 2.83c0.391 0.391 1.024 0.391 1.414 0s0.391-1.024 0-1.414l-2.83-2.83c-0.391-0.391-1.024-0.391-1.414 0s-0.391 1.024 0 1.414zM15.533 16.947l2.83 2.83c0.391 0.391 1.024 0.391 1.414 0s0.391-1.024 0-1.414l-2.83-2.83c-0.391-0.391-1.024-0.391-1.414 0s-0.391 1.024 0 1.414zM2 13h4c0.552 0 1-0.448 1-1s-0.448-1-1-1h-4c-0.552 0-1 0.448-1 1s0.448 1 1 1zM18 13h4c0.552 0 1-0.448 1-1s-0.448-1-1-1h-4c-0.552 0-1 0.448-1 1s0.448 1 1 1zM5.637 19.777l2.83-2.83c0.391-0.391 0.391-1.024 0-1.414s-1.024-0.391-1.414 0l-2.83 2.83c-0.391 0.391-0.391 1.024 0 1.414s1.024 0.391 1.414 0zM16.947 8.467l2.83-2.83c0.391-0.391 0.391-1.024 0-1.414s-1.024-0.391-1.414 0l-2.83 2.83c-0.391 0.391-0.391 1.024 0 1.414s1.024 0.391 1.414 0z"></path>
    </symbol>
    <symbol id="icon-duplicate" viewBox="0 0 24 24">
      <path
        d="M18.984 21v-14.016h-10.969v14.016h10.969zM18.984 5.016q0.797 0 1.406 0.586t0.609 1.383v14.016q0 0.797-0.609 1.406t-1.406 0.609h-10.969q-0.797 0-1.406-0.609t-0.609-1.406v-14.016q0-0.797 0.609-1.383t1.406-0.586h10.969zM15.984 0.984v2.016h-12v14.016h-1.969v-14.016q0-0.797 0.586-1.406t1.383-0.609h12z"></path>
    </symbol>
    <symbol id="icon-check-box-checked" viewBox="0 0 24 24">
      <path
        d="M9.984 17.016l9-9-1.406-1.453-7.594 7.594-3.563-3.563-1.406 1.406zM18.984 3q0.844 0 1.43 0.586t0.586 1.43v13.969q0 0.844-0.586 1.43t-1.43 0.586h-13.969q-0.844 0-1.43-0.586t-0.586-1.43v-13.969q0-0.844 0.586-1.43t1.43-0.586h13.969z"></path>
    </symbol>
    <symbol id="icon-check-box-unchecked" viewBox="0 0 24 24">
      <path
        d="M18.984 3q0.797 0 1.406 0.609t0.609 1.406v13.969q0 0.797-0.609 1.406t-1.406 0.609h-13.969q-0.797 0-1.406-0.609t-0.609-1.406v-13.969q0-0.797 0.609-1.406t1.406-0.609h13.969zM18.984 5.016h-13.969v13.969h13.969v-13.969z"></path>
    </symbol>
    <symbol id="icon-check-box-indeterminate" viewBox="0 0 24 24">
      <path
        d="M17.016 12.984v-1.969h-10.031v1.969h10.031zM18.984 3q0.797 0 1.406 0.609t0.609 1.406v13.969q0 0.797-0.609 1.406t-1.406 0.609h-13.969q-0.797 0-1.406-0.609t-0.609-1.406v-13.969q0-0.797 0.609-1.406t1.406-0.609h13.969z"></path>
    </symbol>
    <symbol id="icon-delete" viewBox="0 0 24 24">
      <path
        d="M15.516 3.984h3.469v2.016h-13.969v-2.016h3.469l1.031-0.984h4.969zM8.016 9v9.984h7.969v-9.984h-7.969zM6 18.984v-12h12v12q0 0.797-0.609 1.406t-1.406 0.609h-7.969q-0.797 0-1.406-0.609t-0.609-1.406z"></path>
    </symbol>
    <symbol id="icon-add" viewBox="0 0 24 24">
      <path
        d="M3.984 6v14.016h14.016v1.969h-14.016q-0.797 0-1.383-0.586t-0.586-1.383v-14.016h1.969zM12.469 14.016l6.516-6.609-1.406-1.406-5.109 5.156-2.063-2.063-1.406 1.406zM20.016 2.016q0.797 0 1.383 0.586t0.586 1.383v12q0 0.797-0.586 1.406t-1.383 0.609h-12q-0.797 0-1.406-0.609t-0.609-1.406v-12q0-0.797 0.609-1.383t1.406-0.586h12z"></path>
    </symbol>
  </defs>
</svg>